<svg width="145" height="16" viewBox="0 0 145 16" fill="none" xmlns="http://www.w3.org/2000/svg">
<path d="M0.88 15V0.999999H3.48V12.8H10.8V15H0.88ZM15.4527 12.82H23.3527V15H12.8527V0.999999H23.0727V3.18H15.4527V6.82H22.2127V8.96H15.4527V12.82ZM35.7525 12.2V7.84H38.2125V13.42C36.7525 14.6 34.7125 15.2 32.7325 15.2C28.3925 15.2 25.1925 12.18 25.1925 8C25.1925 3.82 28.3925 0.799999 32.7725 0.799999C35.1125 0.799999 37.0725 1.58 38.3925 3.08L36.7525 4.68C35.6525 3.58 34.3925 3.08 32.8925 3.08C29.9125 3.08 27.8125 5.1 27.8125 8C27.8125 10.84 29.9125 12.92 32.8725 12.92C33.8725 12.92 34.8525 12.72 35.7525 12.2ZM52.1217 15L50.7217 11.76H43.7217L42.3417 15H39.6617L45.9617 0.999999H48.5217L54.8417 15H52.1217ZM44.6017 9.72H49.8617L47.2217 3.6L44.6017 9.72ZM56.6222 15V0.999999H59.2222V12.8H66.5422V15H56.6222Z" fill="white"/>
<path d="M80.6022 15.2C76.3222 15.2 73.1222 12.18 73.1222 8C73.1222 3.82 76.3222 0.799999 80.6222 0.799999C82.9022 0.799999 84.8622 1.62 86.1622 3.14L84.4822 4.72C83.4622 3.62 82.2022 3.08 80.7422 3.08C77.8422 3.08 75.7422 5.12 75.7422 8C75.7422 10.88 77.8422 12.92 80.7422 12.92C82.2022 12.92 83.4622 12.38 84.4822 11.26L86.1622 12.86C84.8622 14.38 82.9022 15.2 80.6022 15.2ZM94.9005 15.2C90.5605 15.2 87.3605 12.14 87.3605 8C87.3605 3.86 90.5605 0.799999 94.9005 0.799999C99.2405 0.799999 102.44 3.84 102.44 8C102.44 12.16 99.2405 15.2 94.9005 15.2ZM94.9005 12.92C97.7205 12.92 99.8205 10.86 99.8205 8C99.8205 5.14 97.7205 3.08 94.9005 3.08C92.0805 3.08 89.9805 5.14 89.9805 8C89.9805 10.86 92.0805 12.92 94.9005 12.92ZM114.947 0.999999H117.547L111.447 15H108.887L102.767 0.999999H105.587L110.247 11.8L114.947 0.999999ZM121.625 12.82H129.525V15H119.025V0.999999H129.245V3.18H121.625V6.82H128.385V8.96H121.625V12.82ZM144.383 15H141.583L138.723 10.9C138.543 10.92 138.363 10.92 138.183 10.92H135.023V15H132.423V0.999999H138.183C141.863 0.999999 144.143 2.88 144.143 5.98C144.143 8.1 143.063 9.66 141.163 10.4L144.383 15ZM141.523 5.98C141.523 4.22 140.343 3.2 138.063 3.2H135.023V8.78H138.063C140.343 8.78 141.523 7.74 141.523 5.98Z" fill="#FED600"/>
</svg>
